<svg t="1773373341884" class="icon" viewBox="0 0 1024 1024" version="1.1" xmlns="http://www.w3.org/2000/svg" p-id="9393"
     width="64" height="64">
    <path d="M859.022222 187.733333c22.755556 0 45.511111 17.066667 45.511111 45.511111v415.288889c0 22.755556-22.755556 45.511111-45.511111 45.511111H159.288889c-22.755556 0-45.511111-22.755556-45.511111-45.511111V233.244444c0-22.755556 17.066667-45.511111 45.511111-45.511111h699.733333m5.688889-68.266666H159.288889c-56.888889 0-108.088889 51.2-108.088889 113.777777v415.288889c0 62.577778 51.2 108.088889 108.088889 108.088889h699.733333c62.577778 0 113.777778-51.2 113.777778-108.088889V233.244444c0-62.577778-45.511111-113.777778-108.088889-113.777777z m-85.333333 785.066666H244.622222c-17.066667 0-34.133333-17.066667-34.133333-34.133333s17.066667-34.133333 34.133333-34.133333h529.066667c17.066667 0 34.133333 17.066667 34.133333 34.133333 5.688889 17.066667-11.377778 34.133333-28.444444 34.133333z"
          fill="#292A2D" p-id="9394"></path>
    <path d="M477.866667 745.244444h68.266666v91.022223H477.866667z" fill="#292A2D" p-id="9395"></path>
    <path d="M261.688889 591.644444c-11.377778 0-17.066667 0-22.755556-11.377777-11.377778-11.377778-11.377778-34.133333 0-45.511111l170.666667-170.666667c22.755556-28.444444 68.266667-28.444444 102.4-5.688889l73.955556 62.577778c5.688889 5.688889 11.377778 5.688889 11.377777 0L733.866667 284.444444c11.377778-11.377778 34.133333-17.066667 45.511111 0 11.377778 11.377778 17.066667 34.133333 0 45.511112l-136.533334 136.533333c-28.444444 34.133333-73.955556 34.133333-108.088888 5.688889L466.488889 409.6H455.111111l-170.666667 170.666667c-11.377778 11.377778-17.066667 11.377778-22.755555 11.377777z"
          fill="#3373F2" p-id="9396"></path>
</svg>