<svg t="1773373609946" class="icon" viewBox="0 0 1024 1024" version="1.1" xmlns="http://www.w3.org/2000/svg" p-id="14113" width="64" height="64"><path d="M392 306.4h146.4c20 0 36.8 16.8 36.8 36.8s-16.8 36.8-36.8 36.8h-59.2l158.4 156.8c14.4 14.4 14.4 37.6 0 52s-37.6 14.4-52 0l-156.8-155.2v56c0 20-16.8 36.8-36.8 36.8-20 0-36.8-16-36.8-36.8v-146.4c0-20.8 16.8-36.8 36.8-36.8z" fill="#1AAA5E" p-id="14114"></path><path d="M949.6 87.2h-876.8c-40 0-72.8 32.8-72.8 72.8v584.8c0 40 32.8 72.8 72.8 72.8h413.6v68.8h72.8v-68.8h389.6c40 0 72.8-32.8 72.8-72.8V160c0.8-40-32-72.8-72-72.8z m29.6 637.6c0 21.6-17.6 39.2-39.2 39.2h-857.6c-21.6 0-39.2-17.6-39.2-39.2v-545.6c0-21.6 17.6-39.2 39.2-39.2h857.6c21.6 0 39.2 17.6 39.2 39.2v545.6z" fill="#1AAA5E" p-id="14115"></path><path d="M786.4 948h-550.4c-11.2 0-20.8-9.6-20.8-20.8v-20c0-11.2 9.6-20.8 20.8-20.8h550.4c11.2 0 20.8 9.6 20.8 20.8v20c0 11.2-9.6 20.8-20.8 20.8z" fill="#1AAA5E" p-id="14116"></path></svg>