<svg t="1773367502885" class="icon" viewBox="0 0 1024 1024" version="1.1" xmlns="http://www.w3.org/2000/svg" p-id="7238" width="64" height="64"><path d="M752.13 102.52h105.469c42.554 0 63.832 21.277 63.832 63.828v688.469c0 42.555-21.278 63.832-63.832 63.832H752.13c-42.555 0-63.832-21.277-63.832-63.832V166.348c0-42.551 21.277-63.828 63.832-63.828z m0 0" p-id="7239" fill="#13227a"></path><path d="M857.942 409.719c12.629 0 22.868-14.336 22.868-32.426 0-18.089-10.239-34.132-22.868-34.132H750.763c-12.629 0-22.871 14.675-22.871 34.132 0 19.457 10.242 32.426 22.871 32.426h107.179z m0-126.293c12.629 0 22.868-14.676 22.868-34.133s-10.239-32.425-22.868-32.425H750.763c-12.629 0-22.871 14.336-22.871 32.425 0 18.09 10.242 34.133 22.871 34.133h107.179z m0 0M102.228 712.825c-3.969 41.797 26.507 78.972 68.269 83.285h146.774v79.871h-76.118a23.552 23.552 0 0 0 0 45.738H514.22a23.553 23.553 0 0 0 0-45.738h-78.168V796.11h147.801c41.761-4.313 72.234-41.488 68.265-83.285v-19.118h-549.89v19.118z m350.89-256a37.524 37.524 0 0 0 0-6.145c0.129-2.16 0.129-4.324 0-6.484a15.677 15.677 0 0 1 0-1.707v-5.805c-10.636-28.898-37.508-48.648-68.265-50.176-30.758 1.528-57.629 21.278-68.266 50.176v5.805l-9.559 1.363c0.196 2.16 0.196 4.328 0 6.488a37.476 37.476 0 0 0 0 6.141 4.442 4.442 0 0 0 0 2.051v8.191a26.08 26.08 0 0 0 0 5.121 9.646 9.646 0 0 0 0 3.071 20.069 20.069 0 0 0 0 4.437v3.414a78.169 78.169 0 0 0 53.59 58.707 60.368 60.368 0 0 0 19.114 2.731 60.917 60.917 0 0 0 19.457-2.731 78.835 78.835 0 0 0 53.589-58.707v-24.234s0.34-1.024 0.34-1.707z m0 0" p-id="7240" fill="#13227a"></path><path d="M585.9 275.575H170.497c-41.812 4.484-72.246 41.761-68.269 83.629v292.863h550.574V359.204c4.016-41.391-25.641-78.461-66.902-83.629z m-58.711 153.941v68.27h-36.18s-3.074 9.214-4.781 13.652a106.24 106.24 0 0 1-5.118 10.922l25.598 27.648-45.055 48.469-25.601-27.305-10.578 9.215a77.34 77.34 0 0 1-13.313 5.121h-2.73v39.25h-62.809v-39.933a93.61 93.61 0 0 1-13.652-5.121l-10.238-5.122-25.602 27.309-46.422-49.152 25.602-27.649a105.356 105.356 0 0 1-3.414-10.922 91.753 91.753 0 0 1-4.778-13.652h-38.23v-68.269h36.183a129.133 129.133 0 0 1 10.239-26.965l-25.602-29.696 45.059-49.152 25.597 27.648a127.53 127.53 0 0 1 25.258-12.628v-37.547h62.809v37.547a116.308 116.308 0 0 1 24.918 11.265l25.597-27.648 46.422 50.515-25.941 27.649a130.08 130.08 0 0 1 10.582 26.965l36.18-0.684z m0 0" p-id="7241" fill="#13227a"></path></svg>