<svg t="1773330440845" class="icon" viewBox="0 0 1024 1024" version="1.1" xmlns="http://www.w3.org/2000/svg" p-id="5345"
     id="mx_n_1773330440846" width="64" height="64">
    <path d="M647.552 190.268952a24.978286 24.978286 0 0 1-17.712762-7.155809 60.489143 60.489143 0 0 1-12.641524-17.39581 97.755429 97.755429 0 0 1-7.594666-20.967619c-1.682286-7.15581-2.523429-13.129143-2.523429-17.895619V0h2.023619c5.400381 0 10.959238 0.853333 16.700952 2.56 5.729524 1.706667 12.470857 4.937143 20.224 9.71581 7.753143 4.778667 17.188571 11.76381 28.318477 20.967619 11.129905 9.216 25.112381 21.321143 41.984 36.327619 18.200381 16.359619 32.536381 30.342095 42.983619 41.935238 10.459429 11.580952 18.553905 21.308952 24.283428 29.147428 5.729524 7.850667 9.264762 14.506667 10.617905 19.95581 1.340952 5.449143 2.023619 10.22781 2.023619 14.323809v15.335619H647.53981zM476.580571 768.256a102.278095 102.278095 0 0 0-1.011809 14.32381v15.347809c0 30.683429 4.388571 59.672381 13.141333 86.942476a319.670857 319.670857 0 0 0 36.425143 76.726857H167.05219c-12.8 0-26.806857-3.754667-41.971809-11.251809a177.371429 177.371429 0 0 1-42.48381-29.671619 171.495619 171.495619 0 0 1-32.877714-41.935238C40.941714 863.049143 36.565333 846.677333 36.565333 829.635048v-697.660953C36.565333 117.638095 39.942095 102.802286 46.683429 87.454476a177.883429 177.883429 0 0 1 26.294857-42.459428 147.285333 147.285333 0 0 1 37.424762-32.219429C124.580571 4.254476 139.416381 0 154.934857 0h387.413333v127.878095c0 13.628952 2.023619 27.794286 6.070858 42.447238a139.995429 139.995429 0 0 0 19.224381 41.435429 106.544762 106.544762 0 0 0 33.377523 31.707428c13.494857 8.17981 29.342476 12.27581 47.542858 12.27581h147.687619v254.72a69.948952 69.948952 0 0 0-17.188572-2.048h-18.212571c-50.590476 0-96.78019 11.946667-138.581334 35.803429-41.813333 23.868952-75.53219 55.929905-101.156571 96.158476H226.736762c-17.529905 0-32.548571 6.144-45.019429 18.419809-12.470857 12.27581-18.712381 27.282286-18.712381 45.007238 0 17.737143 6.241524 32.914286 18.712381 45.531429 12.483048 12.604952 27.489524 18.919619 45.019429 18.919619h249.856zM226.736762 383.622095c-17.529905 0-32.548571 6.302476-45.019429 18.919619-12.470857 12.617143-18.712381 27.794286-18.712381 45.519238 0 17.737143 6.241524 32.743619 18.712381 45.019429 12.483048 12.27581 27.489524 18.407619 45.019429 18.407619h379.331048c17.529905 0 32.365714-6.13181 44.507428-18.407619 12.141714-12.27581 18.212571-27.282286 18.212572-45.019429 0-17.724952-6.070857-32.914286-18.212572-45.519238-12.141714-12.617143-26.977524-18.919619-44.507428-18.919619H226.736762z"
          fill="#0f0f0f" p-id="5346"></path>
    <path d="M764.885333 573.891048c31.012571 0 60.013714 5.790476 86.991238 17.383619a221.610667 221.610667 0 0 1 70.802286 48.091428 224.414476 224.414476 0 0 1 47.542857 71.606857C981.692952 738.243048 987.422476 767.573333 987.422476 798.939429c0 31.378286-5.729524 60.708571-17.188571 87.978666a224.414476 224.414476 0 0 1-47.542857 71.606857 221.610667 221.610667 0 0 1-70.826667 48.079238C824.911238 1018.197333 795.910095 1024 764.897524 1024c-30.354286 0-59.001905-5.802667-85.991619-17.39581a221.610667 221.610667 0 0 1-70.802286-48.079238c-20.23619-20.455619-36.242286-44.324571-48.054857-71.606857-11.800381-27.282286-17.700571-56.600381-17.700572-87.978666 0-31.366095 5.90019-60.696381 17.700572-87.966477 11.812571-27.282286 27.818667-51.151238 48.054857-71.606857a221.610667 221.610667 0 0 1 70.802286-48.091428c26.977524-11.580952 55.637333-17.383619 85.991619-17.383619zM896.11581 847.396571H636.092952l-2.925714 0.158477-1.865143 0.256a22.552381 22.552381 0 0 0-18.346666 21.76c0 1.219048 0.121905 2.438095 0.304761 3.59619v0.512l0.268191 1.950476c0.828952 4.522667 3.05981 8.679619 6.4 11.849143l81.724952 78.445714 2.620953 2.133334 1.767619 1.133714c9.057524 5.254095 20.528762 4.022857 28.306285-3.267048 4.327619-4.047238 6.777905-9.728 6.777905-15.689142 0-5.973333-2.450286-11.654095-6.777905-15.689143l-44.592761-42.800762H896.11581l2.925714-0.158476 1.852952-0.268191a22.552381 22.552381 0 0 0 18.358857-21.747809c0-12.251429-10.337524-22.174476-23.137523-22.174477z m-69.973334-204.8a23.832381 23.832381 0 0 0-28.281905 3.291429 21.467429 21.467429 0 0 0-6.790095 15.676952c0 5.973333 2.462476 11.654095 6.777905 15.689143l44.519619 42.727619-206.287238 0.036572-2.925714 0.195047-1.852953 0.268191a22.552381 22.552381 0 0 0-18.346666 21.747809c0 12.251429 10.337524 22.174476 23.125333 22.174477H896.11581l2.925714-0.158477 1.852952-0.256a22.552381 22.552381 0 0 0 18.358857-21.76c0-1.206857-0.121905-2.401524-0.316952-3.59619v-0.512l-0.268191-1.962667a21.699048 21.699048 0 0 0-6.4-11.873524l-81.724952-78.372571-2.608762-2.169905z"
          fill="#0f0f0f" p-id="5347"></path>
</svg>