<svg t="1773367839432" class="icon" viewBox="0 0 1024 1024" version="1.1" xmlns="http://www.w3.org/2000/svg" p-id="8550"
     width="64" height="64">
    <path d="M473.6 358.4V160a32 32 0 1 1 64 0V358.4H819.2a51.2 51.2 0 1 1 0 102.4H204.8a51.2 51.2 0 0 1 0-102.4h268.8zM153.6 498.2784V819.2a102.4 102.4 0 0 0 102.4 102.4h512a102.4 102.4 0 0 0 102.4-102.4V498.2784A102.4 102.4 0 0 0 819.2 307.2h-230.4V160a83.2 83.2 0 1 0-166.4 0V307.2H204.8a102.4 102.4 0 0 0-51.2 191.0784zM204.8 512h614.4v307.2a51.2 51.2 0 0 1-51.2 51.2h-128v-204.8a25.6 25.6 0 0 0-51.2 0v204.8h-153.6v-204.8a25.6 25.6 0 0 0-51.2 0v204.8H256a51.2 51.2 0 0 1-51.2-51.2v-307.2z"
          p-id="8551" fill="#1296db"></path>
</svg>