<svg t="1773211638874" class="icon" viewBox="0 0 1024 1024" version="1.1" xmlns="http://www.w3.org/2000/svg"
     p-id="11705" width="64" height="64">
    <path d="M315.53537012 877.30209755h0.05523406c64.34718278 0 98.15016613-57.16681008 107.98175194-90.91456065l0.11046682-0.27616773 0.11046814-0.49710269c24.08186438-101.24324915 48.71606423-204.03304044 73.35026409-305.4419905h72.79792862a44.73924267 44.73924267 0 0 0 44.29737274-45.0154104 44.73924267 44.73924267 0 0 0-44.29737274-45.0154104h-50.81494315c6.62803595-26.23597606 9.27925033-36.23326276 10.32868978-39.93391661l2.48551349-8.45074583c4.30822337-14.96831495 11.48859609-40.04438343 21.48588277-61.14363164 10.88102525-23.14289175 20.65737828-31.37270394 26.07027518-31.37270393 13.14560507 0 18.55850066 25.90457427 19.44223921 34.90765557a44.79447674 44.79447674 0 0 0 47.66662479 41.31475786 43.80027134 43.80027134 0 0 0 30.21279764-15.63111854 45.1811113 45.1811113 0 0 0 10.49438939-32.69830984 158.74146101 158.74146101 0 0 0-24.85513482-72.74269455C642.68417835 174.84075362 613.9626888 159.26486914 579.55213591 159.26486914c-38.38737445 0-70.42288197 21.0992482-95.33325084 62.74540656-19.33177108 32.36690932-30.10232951 69.76007838-37.22746816 94.4495123l-2.31981259 7.89841038c-2.43027941 8.22981087-8.06410997 30.37849854-16.8462589 65.7832568H338.62302911a43.63457043 43.63457043 0 0 0-31.2622371 13.25607191 45.07064446 45.07064446 0 0 0-12.97990287 31.75933849c0 24.79990075 19.88410785 44.96017763 44.29737274 44.96017763h67.16409807c-24.79990075 102.40315543-54.1841939 225.79509095-63.90531286 266.61274612l-3.47971888 14.47121096c-3.20355114 9.1687835-12.04093154 26.18074201-22.86672403 26.180742-24.57896708 0-38.27690762-41.70139242-38.38737574-42.08802827a44.6840086 44.6840086 0 0 0-42.52989691-32.36690803 45.1811113 45.1811113 0 0 0-42.58513099 57.55344463c11.32289518 39.71298164 50.04167143 106.82184564 123.44716958 106.82184693z m343.93983178-363.60300595c-7.01467182-9.88681986-18.66896749-23.03242493-38.38737445-23.03242493-23.36382672 0-40.98335606 19.93934192-40.98335606 46.39625165 0 12.5932683 4.14252247 23.91616349 13.03513823 35.79139413l41.59092558 54.23942797-46.28578481 61.97213614a52.08531628 52.08531628 0 0 0-11.48859609 33.08494568c0 25.02083571 18.1718648 44.6840086 41.36999193 44.68400861 13.36653873 0 25.24177068-7.51177452 36.3437296-22.97719087l0.22093496-0.27616773 31.7593385-47.33522428 31.64887167 47.22475615 0.22093495 0.3314018c7.01467182 9.88681986 18.61373473 23.03242493 38.38737447 23.03242493 23.36382672 0 40.98335606-19.99457469 40.98335604-46.39625166 0-12.5932683-4.19775653-23.91616349-13.14560505-35.90186097l-44.96017636-58.54765132 43.52410232-57.60867872 0.27616774-0.38663585c4.80532606-6.79373685 11.15719428-17.56429527 11.15719427-32.58784299 0-25.07606977-18.1718648-44.73924267-41.31475784-44.73924267-19.77364101 0-32.31167525 17.28812753-36.39896367 22.97719087l-0.1657009 0.22093496-28.94242322 42.86129871-28.33485368-42.86129871-0.11046813-0.1657009z"
          fill="#f7f7f7" p-id="11706"></path>
    <path d="M902.07573333 56.88888853H121.96977813C86.15253333 56.88888853 56.88888853 91.02222187 56.88888853 132.75591147v758.48817706C56.88888853 932.97777813 86.15253333 967.11111147 121.92426667 967.11111147H902.03022187c35.77173333 0 65.03537813-34.13333333 65.03537813-75.86702294V132.75591147C967.11111147 91.02222187 937.84746667 56.88888853 902.07573333 56.88888853z m0 796.4444448c0 18.97813333-12.97066667 37.9107552-32.49493333 37.9107552H154.4192c-19.52426667 0-32.49493333-18.93262187-32.49493333-37.9107552v-682.66666666c0-18.97813333 12.97066667-37.9107552 32.49493333-37.9107552h715.1616c19.52426667 0 32.49493333 18.93262187 32.49493333 37.9107552v682.66666666z"
          fill="#f7f7f7" p-id="11707"></path>
</svg>