<svg t="1775784790924" class="icon" viewBox="0 0 1024 1024" version="1.1" xmlns="http://www.w3.org/2000/svg" p-id="5368" width="64" height="64"><path d="M581.973333 887.893333a38.613333 38.613333 0 0 1-27.306666-10.88L467.2 789.333333a36.053333 36.053333 0 0 1-1.493333-50.773333l1.706666-1.493333L554.666667 651.306667a39.893333 39.893333 0 0 1 27.306666-11.306667A37.12 37.12 0 0 1 618.666667 667.52 304.213333 304.213333 0 0 1 618.666667 725.333333h100.053333c56.746667 0 117.76-35.2 117.76-112.64a117.76 117.76 0 0 0-118.186667-116.693333H149.333333a36.906667 36.906667 0 1 1 0-73.6h569.813334a194.56 194.56 0 0 1 138.453333 57.386667A188.586667 188.586667 0 0 1 855.466667 746.666667a196.693333 196.693333 0 0 1-136.32 55.04H618.666667v48.853333a37.12 37.12 0 0 1-36.906667 37.12zM149.333333 800a37.12 37.12 0 0 1-37.12-37.12A36.48 36.48 0 0 1 149.333333 725.333333h202.026667a36.48 36.48 0 0 1 37.333333 36.693334 37.333333 37.333333 0 0 1-37.333333 37.12zM149.333333 210.133333a37.12 37.12 0 0 1 0-74.026666h725.333334a37.12 37.12 0 0 1 0 74.026666z" p-id="5369" fill="#f1f1f1"></path></svg>