<svg t="1773373230508" class="icon" viewBox="0 0 1024 1024" version="1.1" xmlns="http://www.w3.org/2000/svg" p-id="8294" width="64" height="64"><path d="M836.574408 712.096859c-50.631676 90.332799-131.138305 157.445255-225.888633 188.311322-11.015504-22.115961-22.682311-54.284632-16.254241-73.512209 5.465276-16.084335 9.911122-19.963832 18.774497-27.637872 11.865029-10.222615 28.034317-24.239773 40.947094-59.721591 4.955561-13.733984 8.24039-27.524602 11.355314-40.833823 11.383632-48.281324 15.433033-55.700507 48.451229-51.651106 24.749488 3.114924 40.154204 15.716208 57.937589 30.412987 17.50021 14.356968 37.350772 29.620097 64.677151 34.632292z m-341.962033 206.632739c-145.212099 0-271.904558-82.743712-341.508954-205.924801 28.770572-3.681274 60.259623-14.328651 82.743712-40.380744 24.83444-28.713937 25.004345-66.262931 25.145933-96.449378 0.198222-41.060363 2.322034-52.330725 21.889421-60.0614 26.816665-10.534107 38.936551-0.45308 64.054167 23.192026 14.810048 13.875571 31.517369 29.676732 53.774917 36.926009 26.165363 8.551883 57.541144 4.559116 83.819777-10.760647 26.250315-15.121541 45.676115-40.777188 53.944822-71.24681l0.141587 0.028318 0.22654-1.047747c0.11327-0.283175 0.22654-0.509715 0.283175-0.79289 0.283175-1.01943 0.311492-1.982224 0.56635-2.973337 1.982224-7.192643 3.341464-14.413603 4.190989-21.577929 0.424762-3.199877 0.56635-6.116578 0.849525-9.231502 0.141587-2.463622 0.45308-4.955561 0.56635-7.362548 0.79289-16.225923 0.481397-32.451846-0.877843-48.592816a393.613139 393.613139 0 0 1-1.076064-21.521294c0.33981-8.212073 1.727367-14.753413 4.530798-18.916085 5.380323-2.775114 19.907197-5.521911 29.931589-7.390865 27.66619-5.153784 61.53391-11.723442 81.950822-37.209185l0.311493-0.254857h-0.028318c1.189335-1.529145 2.548574-2.888384 3.652957-4.530799 34.54734-51.679423 32.451846-105.057895-5.493594-139.407013a126.012839 126.012839 0 0 0-9.316455-7.33423c-22.342501-16.452463-31.857178-28.062635-25.315838-49.414024 1.925589-6.428071 3.964449-11.978299 6.031626-17.04713C782.997713 158.178398 892.869582 313.443207 892.869582 496.374205c0 50.858216-8.976645 99.422714-24.466313 144.589114-6.314801 1.755685-11.865029 2.973337-14.668461 2.973337-13.649031 0-23.503518-7.56077-41.145316-22.115961-21.323071-17.556845-47.799926-39.332996-90.870831-44.685003-92.824739-11.695124-110.324949 61.052513-120.575881 104.491546-2.605209 11.043822-5.153784 22.257549-8.976645 32.650068-6.513023 18.009925-11.949982 22.682311-20.898309 30.441304-11.638489 10.109345-27.637872 23.928281-39.304679 58.503939-12.941094 38.285249-1.1327 81.157932 11.780077 111.939045-16.084335 2.123812-32.423528 3.568004-49.102532 3.568004z m0.028317-844.710786h-0.056635c24.126503 0 47.601704 2.633527 70.538873 7.022738a223.708187 223.708187 0 0 0-4.757339 13.875571c-22.710629 74.673226 32.508481 115.422097 50.631676 128.759636 1.69905 1.302605 3.171559 2.322034 4.106036 3.114925 4.049401 3.652956 14.328651 13.394174-3.737909 42.136428-6.399753 5.805086-12.997729 6.881151-29.053746 7.67404-21.606246 1.104382-54.08641 2.803432-82.970252 36.869375l-0.11327 0.084952-0.056635 0.11327-0.368127 0.368127c-0.594667 0.67962-0.991112 1.47251-1.529145 2.180447-15.348081 19.029355-19.680657 39.871029-20.162054 60.316258-0.67962 13.507444 0.11327 27.09984 0.849525 40.040934 0.849525 14.187063 1.557462 27.722825 0.453079 39.701124a135.640787 135.640787 0 0 1-3.256511 17.330305 47.799926 47.799926 0 0 1-22.569041 29.959906c-10.534107 6.116578-23.361931 8.212073-32.310259 5.182101-8.495248-2.775114-18.604592-12.261474-29.308604-22.342501-26.30695-24.721171-66.036391-62.185212-131.251575-36.444612-64.620517 25.542378-64.903692 85.802001-65.101914 125.673029-0.084952 20.841674-0.198222 40.550649-7.730676 49.272436-13.875571 16.084335-42.306333 19.454117-65.045279 18.887768a442.630717 442.630717 0 0 1-25.40079-147.420864c0-233.251182 178.28693-422.355393 398.200572-422.355393zM959.217466 496.374205c0-271.706336-208.388424-492.724361-464.576774-492.72436C238.452342 3.649845 30.063919 224.639552 30.063919 496.374205c0 271.706336 208.416741 492.724361 464.576773 492.724361 256.18835 0 464.576774-221.018025 464.576774-492.724361z" fill="#2892E8" p-id="8295"></path></svg>