<svg t="1775785486621" class="icon" viewBox="0 0 1024 1024" version="1.1" xmlns="http://www.w3.org/2000/svg" p-id="10627" width="64" height="64"><path d="M271.058824 903.529412h722.823529v60.235294H271.058824zM271.058824 481.882353h722.823529v60.235294H271.058824zM271.058824 60.235294h722.823529v60.235294H271.058824z" fill="#f1f1f1" p-id="10628"></path><path d="M30.117647 843.294118m60.235294 0l60.235294 0q60.235294 0 60.235294 60.235294l0 60.235294q0 60.235294-60.235294 60.235294l-60.235294 0q-60.235294 0-60.235294-60.235294l0-60.235294q0-60.235294 60.235294-60.235294Z" fill="#f1f1f1" p-id="10629"></path><path d="M30.117647 421.647059m60.235294 0l60.235294 0q60.235294 0 60.235294 60.235294l0 60.235294q0 60.235294-60.235294 60.235294l-60.235294 0q-60.235294 0-60.235294-60.235294l0-60.235294q0-60.235294 60.235294-60.235294Z" fill="#f1f1f1" p-id="10630"></path><path d="M30.117647 0m60.235294 0l60.235294 0q60.235294 0 60.235294 60.235294l0 60.235294q0 60.235294-60.235294 60.235294l-60.235294 0q-60.235294 0-60.235294-60.235294l0-60.235294q0-60.235294 60.235294-60.235294Z" fill="#f1f1f1" p-id="10631"></path></svg>