<svg t="1773228178490" class="icon" viewBox="0 0 1024 1024" version="1.1" xmlns="http://www.w3.org/2000/svg"
     p-id="16809" width="64" height="64">
    <path d="M298.666667 192a21.333333 21.333333 0 0 1 21.333333-21.333333h597.333333a21.333333 21.333333 0 0 1 0 42.666666H320a21.333333 21.333333 0 0 1-21.333333-21.333333z m618.666666 320H320a21.333333 21.333333 0 0 0 0 42.666667h597.333333a21.333333 21.333333 0 0 0 0-42.666667z m0 341.333333H320a21.333333 21.333333 0 0 0 0 42.666667h597.333333a21.333333 21.333333 0 0 0 0-42.666667zM213.333333 192a64 64 0 1 1-64-64 64 64 0 0 1 64 64z m-42.666666 0a21.333333 21.333333 0 1 0-21.333334 21.333333 21.333333 21.333333 0 0 0 21.333334-21.333333z m42.666666 341.333333a64 64 0 1 1-64-64 64 64 0 0 1 64 64z m-42.666666 0a21.333333 21.333333 0 1 0-21.333334 21.333334 21.333333 21.333333 0 0 0 21.333334-21.333334z m42.666666 341.333334a64 64 0 1 1-64-64 64 64 0 0 1 64 64z m-42.666666 0a21.333333 21.333333 0 1 0-21.333334 21.333333 21.333333 21.333333 0 0 0 21.333334-21.333333z"
          fill="#f1f1f1" p-id="16810"></path>
</svg>