<svg t="1774752094419" class="icon" viewBox="0 0 1024 1024" version="1.1" xmlns="http://www.w3.org/2000/svg" p-id="16186" width="64" height="64"><path d="M487.473054 238.626747H222.786427c-13.285429 0-24.015968 10.730539-24.015968 24.015968s10.730539 24.015968 24.015968 24.015968h264.686627c13.285429 0 24.015968-10.730539 24.015968-24.015968 0.510978-13.285429-10.219561-24.015968-24.015968-24.015968z m0 121.612774H222.786427c-13.285429 0-24.015968 10.730539-24.015968 24.015968s10.730539 24.015968 24.015968 24.015968h264.686627c13.285429 0 24.015968-10.730539 24.015968-24.015968 0.510978-13.285429-10.219561-24.015968-24.015968-24.015968z" fill="#ffcb9e" p-id="16187"></path><path d="M690.842315 1023.489022H188.03992C93.508982 1023.489022 16.351297 946.331337 16.351297 851.800399v-679.600798C16.351297 77.157685 93.508982 0 188.550898 0h438.93014c86.866267 2.043912 137.964072 13.285429 169.644711 37.812375 38.323353 29.125749 44.966068 74.091816 48.031936 113.948104 1.021956 14.307385-9.197605 26.570858-23.50499 27.592814-13.796407 1.021956-26.570858-9.197605-27.592815-23.50499-5.620758-66.938124-8.175649-100.662675-168.111776-104.750499H188.550898C121.612774 51.097804 67.449102 105.261477 67.449102 172.199601v679.600798c0 66.427146 54.163673 120.590818 120.590818 120.590819H690.842315c66.427146 0 120.07984-53.652695 120.079841-120.079841v-188.03992c0-14.307385 11.241517-25.548902 25.548902-25.548902s25.548902 11.241517 25.548902 25.548902v188.03992c0 94.530938-76.646707 171.177645-171.177645 171.177645z" fill="#ffcb9e" p-id="16188"></path><path d="M409.804391 850.778443c-6.642715 0-13.285429-2.55489-17.884231-7.664671-5.620758-5.620758-8.175649-13.796407-7.153693-21.461077l20.439122-145.117765c0.510978-13.285429 6.131737-25.037924 15.840319-34.235529l417.469062-411.337325c11.241517-11.241517 26.05988-17.373253 42.411178-17.373254 15.840319 0 31.169661 6.131737 42.411177 17.373254l70.003992 68.471058c11.752495 11.241517 18.39521 26.570858 18.39521 43.433133 0 16.351297-6.131737 31.680639-17.373254 43.433134l-435.353293 435.353294c-7.664671 7.664671-18.39521 12.774451-28.61477 13.796407l-116.502994 15.329341H409.804391z m45.988024-171.177645v2.554891l-15.840319 113.437125 83.289421-10.730539 434.331337-434.331337c2.55489-2.55489 2.55489-5.620758 2.554891-7.664671s-0.510978-4.598802-3.065869-7.153692l-70.003992-68.471058c-2.55489-2.55489-5.10978-2.55489-6.642714-2.55489s-4.087824 0.510978-6.131737 2.55489l-417.98004 411.848303s-0.510978 0-0.510978 0.510978z m66.938124 105.772455z m1.532934-1.021956z m-85.844311-123.656686zM498.203593 288.191617H213.077844c-14.307385 0-25.548902-11.241517-25.548902-25.548902s11.241517-25.548902 25.548902-25.548903h285.125749c14.307385 0 25.548902 11.241517 25.548902 25.548903s-11.241517 25.548902-25.548902 25.548902zM498.203593 409.804391H213.077844c-14.307385 0-25.548902-11.241517-25.548902-25.548902s11.241517-25.548902 25.548902-25.548902h285.125749c14.307385 0 25.548902 11.241517 25.548902 25.548902s-11.241517 25.548902-25.548902 25.548902z" fill="#ffbd61" p-id="16189"></path></svg>