<svg t="1777888997920" class="icon" viewBox="0 0 1024 1024" version="1.1" xmlns="http://www.w3.org/2000/svg" p-id="8112" width="64" height="64"><path d="M502.109189 749.46548h14.793213c14.793214 0 24.770032-9.976818 24.770032-24.770032v-118.689737c0-14.793214-9.976818-24.770032-24.770032-24.770032h-14.793213c-14.793214 0-24.770032 9.976818-24.770032 24.770032v118.689737c0 14.793214 9.976818 24.770032 24.770032 24.770032z m0 0" fill="#EC681C" p-id="8113"></path><path d="M764.258693 447.580716v-49.540064c0-148.448177-113.873341-257.333109-252.3447-257.33311-138.471359 0-252.3447 113.873341-252.3447 252.344701v49.540063h-69.321687v356.241223c0 49.540064 39.563245 84.1149 84.1149 84.1149h474.930959c44.551655 0 84.1149-39.563245 84.114901-84.1149V447.580716h-69.149673z m-455.149336-54.356459c0-108.884932 94.091718-202.804636 202.804636-202.804637 108.884932 0 202.804636 89.103309 202.804636 202.804637v49.540064H309.109357v-49.540064z m474.930959 405.781286c0 19.781623-14.793214 34.574836-34.574836 34.574837H274.53452c-19.781623 0-34.574836-14.793214-34.574836-34.574837V497.120779h544.252646v301.884764z m0 0" fill="#EC681C" p-id="8114"></path></svg>