<svg t="1773373128985" class="icon" viewBox="0 0 1024 1024" version="1.1" xmlns="http://www.w3.org/2000/svg" p-id="4693" width="64" height="64"><path d="M772.48 832H99.712a36.928 36.928 0 0 1-34.816-45.632l132.16-602.304A61.824 61.824 0 0 1 256.576 128h668.928a35.584 35.584 0 0 1 33.6 43.968l-135.168 617.216a53.312 53.312 0 0 1-51.456 42.816z m-481.024-94.144L600.896 505.6a42.368 42.368 0 0 0 5.696-61.44L402.176 217.6c-33.664-37.312-91.2 19.2-57.6 56.512L518.4 466.368l-272.768 204.8a40.64 40.64 0 1 0 45.824 66.688z m378.304-80.256H505.6a37.312 37.312 0 0 0 0 74.624h164.224a37.376 37.376 0 0 0-0.064-74.56z" fill="#497CE3" p-id="4694"></path></svg>