<svg t="1773367404770" class="icon" viewBox="0 0 1024 1024" version="1.1" xmlns="http://www.w3.org/2000/svg" p-id="6208"
     width="64" height="64">
    <path d="M320 736v128a32 32 0 0 1-32 32H160a32 32 0 0 1-32-32v-128a32 32 0 0 1 32-32h128a32 32 0 0 1 32 32m-192-256v128a32 32 0 0 0 32 32h128a32 32 0 0 0 32-32v-128a32 32 0 0 0-32-32H160a32 32 0 0 0-32 32m0-256v128a32 32 0 0 0 32 32h128a32 32 0 0 0 32-32V224a32 32 0 0 0-32-32H160a32 32 0 0 0-32 32m416 480h-128a32 32 0 0 0-32 32v128a32 32 0 0 0 32 32h128a32 32 0 0 0 32-32v-128a32 32 0 0 0-32-32m-160-224v128a32 32 0 0 0 32 32h128a32 32 0 0 0 32-32v-128a32 32 0 0 0-32-32h-128a32 32 0 0 0-32 32m13.12-244.224l52.384 116.8a32 32 0 0 0 42.272 16.096l116.8-52.384a32 32 0 0 0 16.096-42.304l-52.384-116.8a32 32 0 0 0-42.304-16.096l-116.8 52.416a32 32 0 0 0-16.096 42.272M800 704h-128a32 32 0 0 0-32 32v128a32 32 0 0 0 32 32h128a32 32 0 0 0 32-32v-128a32 32 0 0 0-32-32m-72.192-298.176l-70.24 107.008a32 32 0 0 0 9.184 44.288l107.008 70.24a32 32 0 0 0 44.32-9.184l70.24-107.008a32 32 0 0 0-9.184-44.288l-107.008-70.24a32 32 0 0 0-44.32 9.184M704 160v128a32 32 0 0 0 32 32h128a32 32 0 0 0 32-32V160a32 32 0 0 0-32-32h-128a32 32 0 0 0-32 32"
          fill="#039BE5" p-id="6209"></path>
</svg>